<svg id="Icon-Instagram" data-name="Layer 1" xmlns="http://www.w3.org/2000/svg" viewBox="0 0 100 100">
  <path d="M75.46,14.75H24.54a9.79,9.79,0,0,0-9.79,9.79V75.46a9.79,9.79,0,0,0,9.79,9.79H75.46a9.79,9.79,0,0,0,9.79-9.79V24.54A9.79,9.79,0,0,0,75.46,14.75ZM50,36.29A13.71,13.71,0,1,1,36.29,50,13.71,13.71,0,0,1,50,36.29ZM77.42,75.46a2,2,0,0,1-2,2H24.54a2,2,0,0,1-2-2V44.12h6.71a21.54,21.54,0,1,0,41.42,0h6.71V75.46Zm0-41.12a2,2,0,0,1-2,2H65.67a2,2,0,0,1-2-2V24.54a2,2,0,0,1,2-2h9.79a2,2,0,0,1,2,2v9.79Z"/>
</svg>
