<svg id="Icon-Twitter" xmlns="http://www.w3.org/2000/svg" viewBox="0 0 100 100">
  <path d="M85.38,30.47a27.77,27.77,0,0,1-8,2.19A13.93,13.93,0,0,0,83.51,25a27.81,27.81,0,0,1-8.82,3.37A13.9,13.9,0,0,0,51,41,39.44,39.44,0,0,1,22.39,26.5,13.91,13.91,0,0,0,26.68,45a13.83,13.83,0,0,1-6.29-1.74c0,0.06,0,.12,0,0.17A13.9,13.9,0,0,0,31.53,57.1a13.93,13.93,0,0,1-6.27.24,13.91,13.91,0,0,0,13,9.65A27.87,27.87,0,0,1,21,72.93a28.28,28.28,0,0,1-3.31-.19A39.32,39.32,0,0,0,39,79c25.55,0,39.52-21.17,39.52-39.52q0-.9,0-1.8A28.23,28.23,0,0,0,85.38,30.47Z"/>
</svg>
